<?xml version="1.0" encoding="utf-8"?>
<!-- Generator: Adobe Illustrator 16.0.0, SVG Export Plug-In . SVG Version: 6.00 Build 0)  -->
<!DOCTYPE svg PUBLIC "-//W3C//DTD SVG 1.1//EN" "http://www.w3.org/Graphics/SVG/1.1/DTD/svg11.dtd">
<svg version="1.1" id="Layer_1" xmlns="http://www.w3.org/2000/svg" xmlns:xlink="http://www.w3.org/1999/xlink" x="0px" y="0px"
	 width="1423.578px" height="269.447px" viewBox="0 0 1423.578 269.447" enable-background="new 0 0 1423.578 269.447"
	 xml:space="preserve">
<g>
	<g>
		<path fill="#313131" d="M653.53,112.455c0,46.253-34.908,75.054-90.472,75.054h-35.49v53.235H469.97V37.113h93.089
			C618.622,37.113,653.53,65.911,653.53,112.455z M595.35,112.455c0-18.909-11.927-29.963-35.781-29.963h-32v59.635h32
			C583.422,142.127,595.35,131.073,595.35,112.455z"/>
		<path fill="#313131" d="M674.196,36.239c0-16.582,13.382-29.383,33.745-29.383c20.361,0,33.745,11.927,33.745,28.509
			c0,17.456-13.384,30.254-33.745,30.254C687.578,65.619,674.196,52.821,674.196,36.239z M680.305,83.075h55.271v157.669h-55.271
			V83.075z"/>
		<path fill="#313131" d="M910.409,134.565h50.91v84.36c-23.563,16.873-55.854,25.891-85.527,25.891
			c-64.869,0-112.289-43.926-112.289-105.888c0-61.963,47.42-105.89,113.453-105.89c38.107,0,68.946,13.092,89.018,37.236
			l-36.653,33.164c-13.964-15.417-29.963-22.69-49.456-22.69c-34.906,0-58.179,22.981-58.179,58.18
			c0,34.326,23.272,58.182,57.599,58.182c10.765,0,20.944-2.036,31.125-6.691V134.565z"/>
		<path fill="#313131" d="M989.25,36.239c0-16.582,13.381-29.383,33.746-29.383c20.364,0,33.745,11.927,33.745,28.509
			c0,17.456-13.381,30.254-33.745,30.254C1002.631,65.619,989.25,52.821,989.25,36.239z M995.358,83.075h55.276v157.669h-55.276
			V83.075z"/>
		<path fill="#313131" d="M1252.518,83.075l-65.162,157.669h-57.014l-64.874-157.669h56.725l37.818,96.288l39.854-96.288H1252.518z"
			/>
		<path fill="#313131" d="M1422.706,175.873h-114.618c4.654,15.999,18.329,25.308,38.689,25.308
			c15.421,0,25.602-4.363,36.364-13.672l29.092,30.254c-15.129,16.873-37.236,25.6-67.199,25.6
			c-56.146,0-92.506-34.617-92.506-81.744c0-47.418,36.941-81.162,86.687-81.162c46.545,0,84.363,29.671,84.363,81.744
			C1423.578,166.272,1422.995,171.51,1422.706,175.873z M1307.216,146.781h64.579c-2.906-16.58-15.128-27.053-32.292-27.053
			C1322.344,119.728,1310.417,130.202,1307.216,146.781z"/>
	</g>
</g>
<path fill="#313131" d="M382.326,134.726c0,74.407-60.318,134.721-134.725,134.721H134.725C60.318,269.447,0,209.133,0,134.726l0,0
	C0,60.314,60.318,0,134.725,0h112.876C322.007,0,382.326,60.314,382.326,134.726L382.326,134.726z"/>
<g>
	<path fill="#FFFFFF" d="M154.295,189.377c0,9.531-9.78,17.259-21.847,17.259l0,0c-12.066,0-21.847-7.728-21.847-17.259V80.07
		c0-9.531,9.781-17.259,21.847-17.259l0,0c12.067,0,21.847,7.728,21.847,17.259V189.377z"/>
	<path fill="#FFFFFF" d="M271.725,189.377c0,9.531-9.781,17.259-21.847,17.259l0,0c-12.067,0-21.847-7.728-21.847-17.259V80.07
		c0-9.531,9.78-17.259,21.847-17.259l0,0c12.066,0,21.847,7.728,21.847,17.259V189.377z"/>
</g>
</svg>
