<?xml version="1.0" encoding="utf-8"?>
<!-- Generator: Adobe Illustrator 16.0.0, SVG Export Plug-In . SVG Version: 6.00 Build 0)  -->
<!DOCTYPE svg PUBLIC "-//W3C//DTD SVG 1.1//EN" "http://www.w3.org/Graphics/SVG/1.1/DTD/svg11.dtd">
<svg version="1.1" xmlns="http://www.w3.org/2000/svg" xmlns:xlink="http://www.w3.org/1999/xlink" x="0px" y="0px" width="1920px"
	 height="1500px" viewBox="0 0 1920 1500" enable-background="new 0 0 1920 1500" xml:space="preserve">
	<g display="inline">
		<polygon id="base_left" fill="#8A92B2" points="124.61,339.44 103.944,380.773 124.61,389.04 145.277,380.773 		"/>
		<polygon id="base_right" fill="#8A92B2" points="124.61,339.44 124.61,389.04 124.61,389.04 145.277,380.773 		"/>
		<polygon id="base_bottom_left" fill="#62688F" points="124.61,389.04 103.944,380.773 124.61,364.24 145.277,380.773 		"/>
		<polygon id="base_bottom_right" fill="#62688F" points="124.61,389.04 124.61,380.773 124.61,364.24 145.277,380.773 		"/>
		<polygon id="bottom_left" fill="#8A92B2" points="124.61,405.573 103.944,384.907 124.61,393.173 145.277,384.907 		"/>
		<polygon id="bottom_right" fill="#8A92B2" points="124.61,405.573 124.61,384.907 124.61,393.173 145.277,384.907 		"/>
	</g>
	<g display="inline">
		<g>
			<g>
				<path fill="#231F20" d="M68.167,665.667c-0.091,0.125-0.497,0.033-1.128-0.22c-0.628-0.257-1.482-0.676-2.532-1.11
					c-2.07-0.917-4.865-1.989-7.754-2.641c-2.883-0.677-5.828-0.949-8.058-0.976c-2.231-0.039-3.75,0.12-3.843,0.118
					c-0.094,0.004-1.614-0.042-3.856,0.136c-2.24,0.166-5.206,0.576-8.125,1.282c-2.928,0.67-5.798,1.619-7.951,2.367
					c-2.152,0.751-3.586,1.302-3.751,1.042c-0.17-0.263,0.996-1.346,2.983-2.616c1.986-1.266,4.797-2.72,7.783-3.834
					c2.972-1.149,6.111-1.936,8.537-2.354c2.425-0.432,4.124-0.516,4.227-0.521c0.102,0.002,1.802-0.041,4.271,0.242
					c2.464,0.268,5.689,0.921,8.715,2.07c3.036,1.122,5.822,2.738,7.708,4.172c0.961,0.694,1.686,1.368,2.161,1.875
					C68.031,665.203,68.259,665.542,68.167,665.667z"/>
			</g>
		</g>
	</g>
</g>
<g id="Layer_4">
	<path fill="#D8DCEA" d="M604.845,736.014c19.458,1.94,39.982,3.487,61.549,3.96c5.389,0.02,10.848,0.135,16.363,0.072
		c5.507-0.196,11.102-0.127,16.722-0.555c5.624-0.364,11.326-0.647,17.024-1.445c2.846-0.394,5.758-0.553,8.596-1.141
		c2.849-0.543,5.714-1.086,8.596-1.634c1.458-0.214,2.849-0.663,4.254-1.076l4.23-1.241c2.791-0.79,5.732-1.718,8.708-2.665
		c5.992-1.589,12.169-2.473,18.415-2.979c12.509-0.896,25.268-0.202,38.162,1.21c25.807,2.857,52.2,8.586,79.546,14.566
		c6.84,1.484,13.745,2.979,20.731,4.354c6.979,1.33,14.072,2.708,21.197,3.193c3.544,0.197,7.188,0.329,9.982-1.365
		c2.918-1.654,5.327-4.394,7.409-7.298c4.144-5.921,7.072-12.806,9.49-19.859c5.165-15.313,7.499-31.194,8.189-46.609
		c0.607-15.445-0.705-30.536-3.775-44.712c-1.596-7.077-3.65-13.909-6.126-20.428c-2.397-6.588-5.608-12.559-8.789-18.536
		c-6.563-12.045-10.225-24.854-11.766-37.098c-1.595-12.273-1.131-23.994,0.165-34.729c1.4-10.736,3.62-20.538,6.225-29.279
		c2.564-8.758,5.47-16.473,8.268-23.162c0.717-1.665,1.395-3.28,2.101-4.817c0.557-1.215,1.093-2.386,1.608-3.509
		c0.834-1.755,1.606-3.304,2.34-4.644c0.197-0.24-0.088-0.097-0.243-0.059l-0.512,0.152l-1.022,0.3l-2.025,0.582
		c-1.554,0.43-3.101,0.857-4.64,1.283c-4.367,1.132-8.687,2.253-12.965,3.361c-8.572,2.147-17.008,4.086-25.3,5.85
		c-16.591,3.485-32.61,6.292-48.086,8.09c-15.466,1.81-30.404,2.701-44.733,1.88c-7.159-0.458-14.169-1.335-20.924-3.014
		c-1.679-0.482-3.348-0.961-5.005-1.438c-1.629-0.618-3.248-1.233-4.857-1.844c-2.944-1.466-5.85-2.914-8.719-4.344
		c-11.186-4.733-23.22-6.423-34.437-7.54c-11.283-1.073-22.051-1.366-32.206-1.395c-20.325,0-38.235,1.114-53.827,2.306
		c-31.193,2.503-53.179,5.482-67.366,7.444c-5.162,0.731-9.274,1.343-12.434,1.827l2.314,264.823
		C586.215,733.994,595.397,735.084,604.845,736.014z M712.495,612.57l52.712-105.424l52.712,105.424l-52.712,21.084v10.542
		l52.712-21.085l-52.712,52.712l-52.712-52.712l52.712,21.085v-10.542L712.495,612.57z"/>
	<path fill="#D8DCEA" d="M568.603,623.774c-0.32,27.486-0.684,58.75-1.094,93.959c-0.045,4.09-0.09,8.237-0.136,12.441l-0.014,0.907
		c0.02,0.135-0.055,0.349,0.043,0.416l0.445,0.067l1.806,0.269c0.831,0.112,1.674,0.227,2.51,0.339l-1.918-219.408
		C569.798,538.675,569.225,575.359,568.603,623.774z"/>
	<path fill="#D8DCEA" d="M576.451,732.753c0.269,0.035,0.549,0.065,0.82,0.1l-2.314-264.823c-0.937,0.143-1.78,0.274-2.548,0.395
		l2.308,264.095C575.296,732.596,575.869,732.673,576.451,732.753z"/>
	<path fill="#D8DCEA" d="M570.245,512.765l1.918,219.408c0.849,0.114,1.7,0.229,2.553,0.346l-2.308-264.095
		c-0.472,0.075-0.916,0.145-1.326,0.21C570.938,475.291,570.642,489.768,570.245,512.765z"/>
	<polygon fill="#8A92B2" points="765.207,507.146 712.495,612.57 765.207,570.401 	"/>
	<polygon fill="#8A92B2" points="817.919,612.57 765.207,507.146 765.207,570.401 	"/>
	<polygon fill="#62688F" points="765.207,612.57 765.207,570.401 712.495,612.57 765.207,633.655 765.207,623.112 	"/>
	<polygon fill="#62688F" points="765.207,570.401 765.207,612.57 765.207,623.112 765.207,633.655 817.919,612.57 	"/>
	<polygon fill="#8A92B2" points="765.207,675.824 765.207,644.197 712.495,623.112 	"/>
	<polygon fill="#8A92B2" points="817.919,623.112 765.207,644.197 765.207,675.824 	"/>
	<path fill="#231F20" d="M962.385,628.409c-3.232-14.61-9.052-28.172-15.728-39.999c-6.141-11.995-9.294-24.65-10.503-36.66
		c-1.187-12.04-0.541-23.483,1.03-33.892c1.517-10.433,3.98-19.854,6.584-28.216c2.659-8.353,5.527-15.646,8.28-21.838
		c0.687-1.549,1.362-3.031,2.036-4.441c0.408-0.846,0.81-1.674,1.2-2.482c0.463-0.921,0.871-1.807,1.358-2.708
		c1.814-3.531,3.832-6.978,5.522-9.927c0-0.19-0.528,0.031-0.898,0.127l-1.183,0.345l-2.373,0.685l-4.73,1.346
		c-2.868,0.776-5.722,1.547-8.56,2.313c-4.456,1.167-8.882,2.257-13.264,3.32c-8.77,2.101-17.383,3.998-25.837,5.695
		c-16.902,3.406-33.179,5.952-48.768,7.562c-15.583,1.528-30.535,2.142-44.519,0.856c-6.984-0.612-13.724-1.78-19.923-3.765
		c-3.089-0.996-6.071-2.162-8.764-3.667c-1.496-0.773-2.983-1.542-4.458-2.305c-1.528-0.86-3.111-1.451-4.679-2.061
		c-6.271-2.442-12.54-3.967-18.645-5.065c-6.105-1.185-12.068-1.862-17.86-2.469c-11.589-1.12-22.51-1.479-32.764-1.597
		c-20.516-0.194-38.39,0.629-53.866,1.551c-30.956,1.918-52.35,4.302-66.049,5.78c-4.439,0.498-8.059,0.918-10.941,1.26
		c-1.87-5.282-6.862-9.1-12.777-9.1c-7.501,0-13.604,6.103-13.604,13.581l-7.572,866.656c-3.691,0.996-7.548,2.22-11.302,3.669
		c-7.614,2.845-14.784,6.551-19.851,9.782c-5.07,3.24-8.043,6-7.609,6.672c0.422,0.663,4.079-0.742,9.568-2.66
		c5.491-1.907,12.811-4.326,20.279-6.037c2.99-0.723,5.994-1.318,8.895-1.806c0.847-0.143,1.684-0.276,2.509-0.401
		c0.859-0.127,1.705-0.246,2.535-0.356c2.437-0.316,4.733-0.553,6.786-0.704c5.719-0.456,9.596-0.339,9.835-0.35
		c0.238,0.006,4.11-0.4,9.801-0.301c1.792,0.022,3.778,0.111,5.871,0.271c0.834,0.063,1.684,0.14,2.553,0.227
		c0.838,0.085,1.689,0.182,2.553,0.291c3.113,0.394,6.356,0.941,9.576,1.699c7.369,1.661,14.497,4.396,19.777,6.735
		c2.679,1.108,4.855,2.177,6.458,2.832c1.61,0.645,2.646,0.879,2.878,0.56c0.233-0.32-0.347-1.186-1.568-2.466
		c-1.213-1.292-3.061-3.009-5.512-4.782c-4.811-3.656-11.917-7.776-19.661-10.641c-3.989-1.515-8.11-2.685-12.033-3.564
		l-5.16-590.494c1.65,0.192,3.298,0.381,4.963,0.573c4.756,0.558,9.59,1.017,14.485,1.529c19.599,1.873,40.328,3.39,62.228,3.936
		c5.472,0.194,11.022,0.197,16.641,0.174c5.618,0.08,11.312-0.204,17.075-0.369c5.762-0.142,11.588-0.757,17.488-1.123
		c2.942-0.361,5.899-0.728,8.877-1.094c1.487-0.184,2.98-0.374,4.477-0.558c1.49-0.252,2.977-0.573,4.472-0.857
		c2.981-0.628,6.01-1.086,9.002-1.863c2.969-0.887,5.956-1.783,8.96-2.683c5.755-1.988,11.672-3.413,17.869-4.207
		c12.372-1.564,25.281-1.181,38.371-0.055c26.227,2.406,53.274,8.095,81.437,14.183c7.048,1.515,14.17,3.059,21.405,4.506
		c7.239,1.422,14.574,2.82,22.169,3.53c1.912,0.124,3.822,0.281,5.799,0.184c1.953-0.002,4.02-0.358,6.02-1.15
		c3.806-1.823,6.547-4.877,8.912-8.013c4.589-6.439,7.729-13.709,10.273-21.183c5.387-15.987,7.73-32.422,8.375-48.365
		C967.218,658.601,965.729,643.013,962.385,628.409z M577.36,1326.961c-1.792-0.302-3.5-0.538-5.085-0.71
		c-6.295-0.72-10.632-0.61-10.892-0.615c-0.262,0.013-4.594,0.227-10.78,1.327c-1.667,0.287-3.472,0.648-5.359,1.071l7.561-865.371
		c0-4.688,3.815-8.502,8.502-8.502c3.286,0,6.109,1.894,7.523,4.636c-2.389,0.298-7.854,1.369-7.854,1.369
		s0.768,49.286,1.276,157.068c0.092,26.945,0.198,57.803,0.316,92.846c0.01,4.38,0.019,8.826,0.029,13.337
		c0.003,2.429,0.008,4.879,0.012,7.343l0.004,2.508l0.001,1.253v0.628c0.055,0.162-0.133,0.535,0.176,0.476
		c1.667,0.227,3.338,0.453,5.017,0.68c1.455,0.182,2.929,0.366,4.397,0.551L577.36,1326.961z M964.009,675.503
		c-0.69,15.416-3.024,31.297-8.189,46.609c-2.417,7.054-5.346,13.938-9.49,19.859c-2.083,2.904-4.491,5.644-7.409,7.298
		c-2.793,1.694-6.438,1.562-9.982,1.365c-7.125-0.486-14.217-1.863-21.197-3.193c-6.986-1.375-13.891-2.87-20.731-4.354
		c-27.347-5.98-53.739-11.709-79.546-14.566c-12.894-1.412-25.653-2.107-38.162-1.21c-6.246,0.506-12.423,1.39-18.415,2.979
		c-2.976,0.947-5.917,1.875-8.708,2.665l-4.23,1.241c-1.405,0.414-2.796,0.862-4.254,1.076c-2.882,0.548-5.747,1.091-8.596,1.634
		c-2.838,0.588-5.75,0.747-8.596,1.141c-5.699,0.797-11.4,1.081-17.024,1.445c-5.621,0.428-11.215,0.359-16.722,0.555
		c-5.516,0.063-10.975-0.052-16.363-0.072c-21.567-0.473-42.091-2.02-61.549-3.96c-9.447-0.929-18.63-2.02-27.574-3.161
		c-0.271-0.035-0.551-0.064-0.82-0.1c-0.582-0.08-1.154-0.157-1.735-0.234c-0.853-0.117-1.704-0.232-2.553-0.346
		c-0.836-0.112-1.679-0.227-2.51-0.339l-1.806-0.269l-0.445-0.067c-0.098-0.067-0.023-0.281-0.043-0.416l0.014-0.907
		c0.046-4.204,0.091-8.352,0.136-12.441c0.41-35.21,0.773-66.474,1.094-93.959c0.623-48.415,1.195-85.099,1.643-111.009
		c0.397-22.997,0.693-37.474,0.837-44.13c0.411-0.066,0.854-0.136,1.326-0.21c0.769-0.121,1.612-0.251,2.548-0.395
		c3.16-0.484,7.272-1.096,12.434-1.827c14.188-1.961,36.173-4.94,67.366-7.444c15.591-1.192,33.501-2.306,53.827-2.306
		c10.155,0.028,20.923,0.321,32.206,1.395c11.216,1.116,23.25,2.806,34.437,7.54c2.87,1.43,5.775,2.878,8.719,4.344
		c1.609,0.611,3.228,1.227,4.857,1.844c1.658,0.476,3.327,0.956,5.005,1.438c6.755,1.679,13.766,2.556,20.924,3.014
		c14.33,0.821,29.267-0.071,44.733-1.88c15.477-1.798,31.495-4.605,48.086-8.09c8.292-1.763,16.729-3.703,25.3-5.85
		c4.278-1.108,8.598-2.229,12.965-3.361c1.54-0.426,3.086-0.853,4.64-1.283l2.025-0.582l1.022-0.3l0.512-0.152
		c0.154-0.039,0.439-0.182,0.243,0.059c-0.733,1.34-1.505,2.889-2.34,4.644c-0.515,1.124-1.051,2.294-1.608,3.509
		c-0.706,1.537-1.384,3.152-2.101,4.817c-2.798,6.689-5.704,14.404-8.268,23.162c-2.604,8.742-4.825,18.543-6.225,29.279
		c-1.295,10.735-1.76,22.456-0.165,34.729c1.541,12.244,5.202,25.053,11.766,37.098c3.181,5.977,6.391,11.947,8.789,18.536
		c2.476,6.52,4.53,13.352,6.126,20.428C963.304,644.967,964.616,660.058,964.009,675.503z"/>
	<path fill="#C49A6C" d="M562.79,735.625c-0.309,0.06-0.121-0.314-0.176-0.476v-0.628l-0.001-1.253l-0.004-2.508
		c-0.004-2.463-0.009-4.914-0.012-7.343c-0.01-4.511-0.019-8.957-0.029-13.337c-0.118-35.043-0.224-65.901-0.316-92.846
		c-0.508-107.782-1.276-152.964-1.276-152.964l5.101,0.021l-0.767-5.042c0,0,1.132-0.153,3.521-0.451
		c-1.415-2.742-4.238-4.636-7.523-4.636c-4.688,0-8.502,3.814-8.502,8.502l-7.561,865.371c1.887-0.423,3.692-0.784,5.359-1.071
		c6.186-1.101,10.519-1.314,10.78-1.327c0.035,0.001,0.147-0.001,0.322-0.002l5.615-589.395
		C565.805,736.034,564.295,735.83,562.79,735.625z"/>
	<path fill="#936A41" d="M572.204,736.855c-1.468-0.185-2.943-0.369-4.397-0.551c-0.163-0.022-0.324-0.044-0.487-0.066
		l-5.615,589.395c1.136-0.008,5.115-0.007,10.57,0.617c1.584,0.172,3.293,0.408,5.085,0.71L572.204,736.855z"/>
</g>
</svg>
